<mxfile host="app.diagrams.net" modified="2022-11-15T06:04:42.830Z" agent="5.0 (Windows NT 10.0; Win64; x64) AppleWebKit/537.36 (KHTML, like Gecko) Chrome/107.0.0.0 Safari/537.36" etag="okhe8T901SE8d1tjHK8D" version="20.5.3" type="github">
  <diagram id="FXDxZQZHp6sqd9wIJKdn" name="PÃ¡gina-1">
    <mxGraphModel dx="1038" dy="1742" grid="1" gridSize="10" guides="1" tooltips="1" connect="1" arrows="1" fold="1" page="1" pageScale="1" pageWidth="827" pageHeight="1169" math="0" shadow="0">
      <root>
        <mxCell id="0" />
        <mxCell id="1" parent="0" />
        <mxCell id="Nr0Nqn4sbpoNYPIsYVH4-4" value="Mark" style="text;html=1;resizable=0;autosize=1;align=center;verticalAlign=middle;points=[];fillColor=#f5f5f5;strokeColor=#666666;rounded=0;fontColor=#333333;" parent="1" vertex="1">
          <mxGeometry x="335" y="300" width="50" height="30" as="geometry" />
        </mxCell>
        <mxCell id="Nr0Nqn4sbpoNYPIsYVH4-5" value="Shila" style="text;html=1;resizable=0;autosize=1;align=center;verticalAlign=middle;points=[];fillColor=#f5f5f5;strokeColor=#666666;rounded=0;fontColor=#333333;" parent="1" vertex="1">
          <mxGeometry x="240" y="300" width="50" height="30" as="geometry" />
        </mxCell>
        <mxCell id="Nr0Nqn4sbpoNYPIsYVH4-11" value="Cornelius" style="text;html=1;resizable=0;autosize=1;align=center;verticalAlign=middle;points=[];fillColor=#f5f5f5;strokeColor=#666666;rounded=0;fontColor=#333333;" parent="1" vertex="1">
          <mxGeometry x="430" y="300" width="70" height="30" as="geometry" />
        </mxCell>
        <mxCell id="Nr0Nqn4sbpoNYPIsYVH4-13" value="Ethel" style="text;html=1;resizable=0;autosize=1;align=center;verticalAlign=middle;points=[];fillColor=#f5f5f5;strokeColor=#666666;rounded=0;fontColor=#333333;" parent="1" vertex="1">
          <mxGeometry x="540" y="300" width="50" height="30" as="geometry" />
        </mxCell>
        <mxCell id="Nr0Nqn4sbpoNYPIsYVH4-16" value="Project" style="text;html=1;resizable=0;autosize=1;align=center;verticalAlign=middle;points=[];fillColor=#f5f5f5;strokeColor=#666666;rounded=0;fontColor=#333333;" parent="1" vertex="1">
          <mxGeometry x="310" y="435" width="60" height="30" as="geometry" />
        </mxCell>
        <mxCell id="Nr0Nqn4sbpoNYPIsYVH4-17" value="" style="endArrow=none;html=1;rounded=0;" parent="1" source="Nr0Nqn4sbpoNYPIsYVH4-16" target="Nr0Nqn4sbpoNYPIsYVH4-5" edge="1">
          <mxGeometry width="50" height="50" relative="1" as="geometry">
            <mxPoint x="580" y="525" as="sourcePoint" />
            <mxPoint x="630" y="475" as="targetPoint" />
            <Array as="points" />
          </mxGeometry>
        </mxCell>
        <mxCell id="Nr0Nqn4sbpoNYPIsYVH4-19" value="working in" style="text;html=1;resizable=0;autosize=1;align=center;verticalAlign=middle;points=[];fillColor=none;strokeColor=none;rounded=0;rotation=60;" parent="1" vertex="1">
          <mxGeometry x="255" y="375" width="80" height="30" as="geometry" />
        </mxCell>
        <mxCell id="Nr0Nqn4sbpoNYPIsYVH4-20" value="working in" style="text;html=1;resizable=0;autosize=1;align=center;verticalAlign=middle;points=[];fillColor=none;strokeColor=none;rounded=0;rotation=-80;" parent="1" vertex="1">
          <mxGeometry x="300" y="365" width="80" height="30" as="geometry" />
        </mxCell>
        <mxCell id="Nr0Nqn4sbpoNYPIsYVH4-21" value="working in" style="text;html=1;resizable=0;autosize=1;align=center;verticalAlign=middle;points=[];fillColor=none;strokeColor=none;rounded=0;rotation=-45;" parent="1" vertex="1">
          <mxGeometry x="390" y="355" width="80" height="30" as="geometry" />
        </mxCell>
        <mxCell id="Nr0Nqn4sbpoNYPIsYVH4-22" value="working in" style="text;html=1;resizable=0;autosize=1;align=center;verticalAlign=middle;points=[];fillColor=none;strokeColor=none;rounded=0;rotation=-30;" parent="1" vertex="1">
          <mxGeometry x="425" y="375" width="80" height="30" as="geometry" />
        </mxCell>
        <mxCell id="Nr0Nqn4sbpoNYPIsYVH4-23" value="" style="endArrow=none;html=1;rounded=0;" parent="1" source="Nr0Nqn4sbpoNYPIsYVH4-16" target="Nr0Nqn4sbpoNYPIsYVH4-4" edge="1">
          <mxGeometry width="50" height="50" relative="1" as="geometry">
            <mxPoint x="580" y="525" as="sourcePoint" />
            <mxPoint x="630" y="475" as="targetPoint" />
          </mxGeometry>
        </mxCell>
        <mxCell id="Nr0Nqn4sbpoNYPIsYVH4-24" value="" style="endArrow=none;html=1;rounded=0;" parent="1" source="Nr0Nqn4sbpoNYPIsYVH4-16" target="Nr0Nqn4sbpoNYPIsYVH4-11" edge="1">
          <mxGeometry width="50" height="50" relative="1" as="geometry">
            <mxPoint x="410" y="405" as="sourcePoint" />
            <mxPoint x="400" y="345" as="targetPoint" />
          </mxGeometry>
        </mxCell>
        <mxCell id="Nr0Nqn4sbpoNYPIsYVH4-25" value="" style="endArrow=none;html=1;rounded=0;" parent="1" source="Nr0Nqn4sbpoNYPIsYVH4-16" target="Nr0Nqn4sbpoNYPIsYVH4-13" edge="1">
          <mxGeometry width="50" height="50" relative="1" as="geometry">
            <mxPoint x="413.68421052631584" y="415" as="sourcePoint" />
            <mxPoint x="386.31578947368416" y="350" as="targetPoint" />
          </mxGeometry>
        </mxCell>
        <mxCell id="Nr0Nqn4sbpoNYPIsYVH4-26" value="European Union" style="text;html=1;resizable=0;autosize=1;align=center;verticalAlign=middle;points=[];fillColor=#f5f5f5;strokeColor=#666666;rounded=0;fontColor=#333333;" parent="1" vertex="1">
          <mxGeometry x="10" y="230" width="110" height="30" as="geometry" />
        </mxCell>
        <mxCell id="Nr0Nqn4sbpoNYPIsYVH4-27" value="" style="endArrow=none;html=1;rounded=0;" parent="1" source="Nr0Nqn4sbpoNYPIsYVH4-16" target="Nr0Nqn4sbpoNYPIsYVH4-26" edge="1">
          <mxGeometry width="50" height="50" relative="1" as="geometry">
            <mxPoint x="580" y="525" as="sourcePoint" />
            <mxPoint x="630" y="475" as="targetPoint" />
          </mxGeometry>
        </mxCell>
        <mxCell id="Nr0Nqn4sbpoNYPIsYVH4-36" value="is supported" style="text;html=1;resizable=0;autosize=1;align=center;verticalAlign=middle;points=[];fillColor=none;strokeColor=none;rounded=0;rotation=37;" parent="1" vertex="1">
          <mxGeometry x="120" y="290" width="90" height="30" as="geometry" />
        </mxCell>
        <mxCell id="Nr0Nqn4sbpoNYPIsYVH4-39" value="coffe" style="text;html=1;resizable=0;autosize=1;align=center;verticalAlign=middle;points=[];fillColor=#f5f5f5;strokeColor=#666666;rounded=0;fontColor=#333333;" parent="1" vertex="1">
          <mxGeometry x="120" y="110" width="50" height="30" as="geometry" />
        </mxCell>
        <mxCell id="Nr0Nqn4sbpoNYPIsYVH4-40" value="4 hours" style="text;html=1;resizable=0;autosize=1;align=center;verticalAlign=middle;points=[];fillColor=#f5f5f5;strokeColor=#666666;rounded=0;fontColor=#333333;" parent="1" vertex="1">
          <mxGeometry x="590" y="110" width="60" height="30" as="geometry" />
        </mxCell>
        <mxCell id="Nr0Nqn4sbpoNYPIsYVH4-41" value="" style="endArrow=none;html=1;rounded=0;" parent="1" source="Nr0Nqn4sbpoNYPIsYVH4-39" target="Nr0Nqn4sbpoNYPIsYVH4-5" edge="1">
          <mxGeometry width="50" height="50" relative="1" as="geometry">
            <mxPoint x="510" y="400" as="sourcePoint" />
            <mxPoint x="560" y="350" as="targetPoint" />
            <Array as="points" />
          </mxGeometry>
        </mxCell>
        <mxCell id="Nr0Nqn4sbpoNYPIsYVH4-42" value="" style="endArrow=none;html=1;rounded=0;" parent="1" source="Nr0Nqn4sbpoNYPIsYVH4-39" target="Nr0Nqn4sbpoNYPIsYVH4-4" edge="1">
          <mxGeometry width="50" height="50" relative="1" as="geometry">
            <mxPoint x="314.375" y="220" as="sourcePoint" />
            <mxPoint x="280.625" y="310" as="targetPoint" />
            <Array as="points" />
          </mxGeometry>
        </mxCell>
        <mxCell id="Nr0Nqn4sbpoNYPIsYVH4-43" value="" style="endArrow=none;html=1;rounded=0;" parent="1" source="Nr0Nqn4sbpoNYPIsYVH4-39" target="Nr0Nqn4sbpoNYPIsYVH4-11" edge="1">
          <mxGeometry width="50" height="50" relative="1" as="geometry">
            <mxPoint x="324.375" y="230" as="sourcePoint" />
            <mxPoint x="290.625" y="320" as="targetPoint" />
            <Array as="points" />
          </mxGeometry>
        </mxCell>
        <mxCell id="Nr0Nqn4sbpoNYPIsYVH4-44" value="" style="endArrow=none;html=1;rounded=0;" parent="1" source="Nr0Nqn4sbpoNYPIsYVH4-39" target="Nr0Nqn4sbpoNYPIsYVH4-13" edge="1">
          <mxGeometry width="50" height="50" relative="1" as="geometry">
            <mxPoint x="334.375" y="240" as="sourcePoint" />
            <mxPoint x="300.625" y="330" as="targetPoint" />
            <Array as="points" />
          </mxGeometry>
        </mxCell>
        <mxCell id="Nr0Nqn4sbpoNYPIsYVH4-45" value="" style="endArrow=none;html=1;rounded=0;" parent="1" source="Nr0Nqn4sbpoNYPIsYVH4-40" target="Nr0Nqn4sbpoNYPIsYVH4-5" edge="1">
          <mxGeometry width="50" height="50" relative="1" as="geometry">
            <mxPoint x="344.375" y="250" as="sourcePoint" />
            <mxPoint x="310.625" y="340" as="targetPoint" />
            <Array as="points" />
          </mxGeometry>
        </mxCell>
        <mxCell id="Nr0Nqn4sbpoNYPIsYVH4-46" value="" style="endArrow=none;html=1;rounded=0;exitX=0.253;exitY=1.073;exitDx=0;exitDy=0;exitPerimeter=0;" parent="1" source="Nr0Nqn4sbpoNYPIsYVH4-40" target="Nr0Nqn4sbpoNYPIsYVH4-4" edge="1">
          <mxGeometry width="50" height="50" relative="1" as="geometry">
            <mxPoint x="354.375" y="260" as="sourcePoint" />
            <mxPoint x="360" y="320" as="targetPoint" />
            <Array as="points" />
          </mxGeometry>
        </mxCell>
        <mxCell id="Nr0Nqn4sbpoNYPIsYVH4-47" value="" style="endArrow=none;html=1;rounded=0;" parent="1" source="Nr0Nqn4sbpoNYPIsYVH4-40" target="Nr0Nqn4sbpoNYPIsYVH4-11" edge="1">
          <mxGeometry width="50" height="50" relative="1" as="geometry">
            <mxPoint x="364.375" y="270" as="sourcePoint" />
            <mxPoint x="330.625" y="360" as="targetPoint" />
            <Array as="points" />
          </mxGeometry>
        </mxCell>
        <mxCell id="Nr0Nqn4sbpoNYPIsYVH4-48" value="" style="endArrow=none;html=1;rounded=0;" parent="1" source="Nr0Nqn4sbpoNYPIsYVH4-40" target="Nr0Nqn4sbpoNYPIsYVH4-13" edge="1">
          <mxGeometry width="50" height="50" relative="1" as="geometry">
            <mxPoint x="374.375" y="280" as="sourcePoint" />
            <mxPoint x="340.625" y="370" as="targetPoint" />
            <Array as="points" />
          </mxGeometry>
        </mxCell>
        <mxCell id="Nr0Nqn4sbpoNYPIsYVH4-50" value="drink" style="text;html=1;resizable=0;autosize=1;align=center;verticalAlign=middle;points=[];fillColor=none;strokeColor=none;rounded=0;rotation=30;" parent="1" vertex="1">
          <mxGeometry x="270" y="170" width="50" height="30" as="geometry" />
        </mxCell>
        <mxCell id="Nr0Nqn4sbpoNYPIsYVH4-51" value="drink" style="text;html=1;resizable=0;autosize=1;align=center;verticalAlign=middle;points=[];fillColor=none;strokeColor=none;rounded=0;rotation=30;" parent="1" vertex="1">
          <mxGeometry x="285" y="200" width="50" height="30" as="geometry" />
        </mxCell>
        <mxCell id="Nr0Nqn4sbpoNYPIsYVH4-52" value="drink" style="text;html=1;resizable=0;autosize=1;align=center;verticalAlign=middle;points=[];fillColor=none;strokeColor=none;rounded=0;rotation=45;" parent="1" vertex="1">
          <mxGeometry x="250" y="210" width="50" height="30" as="geometry" />
        </mxCell>
        <mxCell id="Nr0Nqn4sbpoNYPIsYVH4-53" value="drink" style="text;html=1;resizable=0;autosize=1;align=center;verticalAlign=middle;points=[];fillColor=none;strokeColor=none;rounded=0;rotation=60;" parent="1" vertex="1">
          <mxGeometry x="180" y="230" width="50" height="30" as="geometry" />
        </mxCell>
        <mxCell id="Nr0Nqn4sbpoNYPIsYVH4-54" value="sleep" style="text;html=1;resizable=0;autosize=1;align=center;verticalAlign=middle;points=[];fillColor=none;strokeColor=none;rounded=0;rotation=-30;" parent="1" vertex="1">
          <mxGeometry x="470" y="160" width="50" height="30" as="geometry" />
        </mxCell>
        <mxCell id="Nr0Nqn4sbpoNYPIsYVH4-55" value="sleep" style="text;html=1;resizable=0;autosize=1;align=center;verticalAlign=middle;points=[];fillColor=none;strokeColor=none;rounded=0;rotation=-30;" parent="1" vertex="1">
          <mxGeometry x="475" y="190" width="50" height="30" as="geometry" />
        </mxCell>
        <mxCell id="Nr0Nqn4sbpoNYPIsYVH4-56" value="sleep" style="text;html=1;resizable=0;autosize=1;align=center;verticalAlign=middle;points=[];fillColor=none;strokeColor=none;rounded=0;rotation=-50;" parent="1" vertex="1">
          <mxGeometry x="490" y="220" width="50" height="30" as="geometry" />
        </mxCell>
        <mxCell id="Nr0Nqn4sbpoNYPIsYVH4-57" value="sleep" style="text;html=1;resizable=0;autosize=1;align=center;verticalAlign=middle;points=[];fillColor=none;strokeColor=none;rounded=0;rotation=-75;" parent="1" vertex="1">
          <mxGeometry x="550" y="220" width="50" height="30" as="geometry" />
        </mxCell>
        <mxCell id="Nr0Nqn4sbpoNYPIsYVH4-58" value="Coventry University" style="text;html=1;resizable=0;autosize=1;align=center;verticalAlign=middle;points=[];fillColor=#f5f5f5;strokeColor=#666666;rounded=0;fontColor=#333333;" parent="1" vertex="1">
          <mxGeometry x="10" y="405" width="130" height="30" as="geometry" />
        </mxCell>
        <mxCell id="Nr0Nqn4sbpoNYPIsYVH4-59" value="" style="endArrow=none;html=1;rounded=0;" parent="1" source="Nr0Nqn4sbpoNYPIsYVH4-58" target="Nr0Nqn4sbpoNYPIsYVH4-5" edge="1">
          <mxGeometry width="50" height="50" relative="1" as="geometry">
            <mxPoint x="460" y="310" as="sourcePoint" />
            <mxPoint x="510" y="260" as="targetPoint" />
          </mxGeometry>
        </mxCell>
        <mxCell id="Nr0Nqn4sbpoNYPIsYVH4-60" value="" style="endArrow=none;html=1;rounded=0;" parent="1" source="Nr0Nqn4sbpoNYPIsYVH4-58" target="Nr0Nqn4sbpoNYPIsYVH4-4" edge="1">
          <mxGeometry width="50" height="50" relative="1" as="geometry">
            <mxPoint x="180" y="385" as="sourcePoint" />
            <mxPoint x="250" y="336.71875" as="targetPoint" />
          </mxGeometry>
        </mxCell>
        <mxCell id="Nr0Nqn4sbpoNYPIsYVH4-61" value="working at" style="text;html=1;resizable=0;autosize=1;align=center;verticalAlign=middle;points=[];fillColor=none;strokeColor=none;rounded=0;rotation=-15;" parent="1" vertex="1">
          <mxGeometry x="160" y="365" width="80" height="30" as="geometry" />
        </mxCell>
        <mxCell id="Nr0Nqn4sbpoNYPIsYVH4-62" value="working at" style="text;html=1;resizable=0;autosize=1;align=center;verticalAlign=middle;points=[];fillColor=none;strokeColor=none;rounded=0;rotation=-30;" parent="1" vertex="1">
          <mxGeometry x="120" y="345" width="80" height="30" as="geometry" />
        </mxCell>
        <mxCell id="Nr0Nqn4sbpoNYPIsYVH4-63" value="&lt;span style=&quot;color: rgba(0, 0, 0, 0.87); font-family: &amp;quot;Work Sans&amp;quot;, sans-serif; font-size: 14px; text-align: start; background-color: rgb(250, 250, 250);&quot;&gt;University of Hamburg&lt;/span&gt;" style="text;html=1;resizable=0;autosize=1;align=center;verticalAlign=middle;points=[];fillColor=#f5f5f5;strokeColor=#666666;rounded=0;fontColor=#333333;" parent="1" vertex="1">
          <mxGeometry x="675" y="405" width="160" height="30" as="geometry" />
        </mxCell>
        <mxCell id="Nr0Nqn4sbpoNYPIsYVH4-64" value="" style="endArrow=none;html=1;rounded=0;" parent="1" source="Nr0Nqn4sbpoNYPIsYVH4-11" target="Nr0Nqn4sbpoNYPIsYVH4-63" edge="1">
          <mxGeometry width="50" height="50" relative="1" as="geometry">
            <mxPoint x="460" y="310" as="sourcePoint" />
            <mxPoint x="510" y="260" as="targetPoint" />
          </mxGeometry>
        </mxCell>
        <mxCell id="Nr0Nqn4sbpoNYPIsYVH4-65" value="" style="endArrow=none;html=1;rounded=0;" parent="1" source="Nr0Nqn4sbpoNYPIsYVH4-13" target="Nr0Nqn4sbpoNYPIsYVH4-63" edge="1">
          <mxGeometry width="50" height="50" relative="1" as="geometry">
            <mxPoint x="460" y="310" as="sourcePoint" />
            <mxPoint x="510" y="260" as="targetPoint" />
          </mxGeometry>
        </mxCell>
        <mxCell id="Nr0Nqn4sbpoNYPIsYVH4-66" value="working at" style="text;html=1;resizable=0;autosize=1;align=center;verticalAlign=middle;points=[];fillColor=none;strokeColor=none;rounded=0;rotation=15;" parent="1" vertex="1">
          <mxGeometry x="580" y="365" width="80" height="30" as="geometry" />
        </mxCell>
        <mxCell id="Nr0Nqn4sbpoNYPIsYVH4-67" value="working at" style="text;html=1;resizable=0;autosize=1;align=center;verticalAlign=middle;points=[];fillColor=none;strokeColor=none;rounded=0;rotation=30;" parent="1" vertex="1">
          <mxGeometry x="620" y="345" width="80" height="30" as="geometry" />
        </mxCell>
        <mxCell id="Nr0Nqn4sbpoNYPIsYVH4-68" value="Speech recognition" style="text;html=1;resizable=0;autosize=1;align=center;verticalAlign=middle;points=[];fillColor=#f5f5f5;strokeColor=#666666;rounded=0;fontColor=#333333;" parent="1" vertex="1">
          <mxGeometry x="10" y="510" width="130" height="30" as="geometry" />
        </mxCell>
        <mxCell id="Nr0Nqn4sbpoNYPIsYVH4-69" value="" style="endArrow=none;html=1;rounded=0;" parent="1" source="Nr0Nqn4sbpoNYPIsYVH4-68" target="Nr0Nqn4sbpoNYPIsYVH4-58" edge="1">
          <mxGeometry width="50" height="50" relative="1" as="geometry">
            <mxPoint x="490" y="390" as="sourcePoint" />
            <mxPoint x="540" y="340" as="targetPoint" />
          </mxGeometry>
        </mxCell>
        <mxCell id="Nr0Nqn4sbpoNYPIsYVH4-70" value="working on" style="text;html=1;resizable=0;autosize=1;align=center;verticalAlign=middle;points=[];fillColor=none;strokeColor=none;rounded=0;rotation=90;" parent="1" vertex="1">
          <mxGeometry x="50" y="460" width="80" height="30" as="geometry" />
        </mxCell>
        <mxCell id="Nr0Nqn4sbpoNYPIsYVH4-71" value="&lt;span style=&quot;color: rgba(0, 0, 0, 0.87); font-family: &amp;quot;Work Sans&amp;quot;, sans-serif; font-size: 14px; text-align: start; background-color: rgb(250, 250, 250);&quot;&gt;Emotion recognition&lt;/span&gt;" style="text;html=1;resizable=0;autosize=1;align=center;verticalAlign=middle;points=[];fillColor=#f5f5f5;strokeColor=#666666;rounded=0;fontColor=#333333;" parent="1" vertex="1">
          <mxGeometry x="685" y="570" width="150" height="30" as="geometry" />
        </mxCell>
        <mxCell id="Nr0Nqn4sbpoNYPIsYVH4-72" value="" style="endArrow=none;html=1;rounded=0;fontColor=#000000;" parent="1" source="Nr0Nqn4sbpoNYPIsYVH4-71" target="Nr0Nqn4sbpoNYPIsYVH4-63" edge="1">
          <mxGeometry width="50" height="50" relative="1" as="geometry">
            <mxPoint x="490" y="400" as="sourcePoint" />
            <mxPoint x="540" y="350" as="targetPoint" />
          </mxGeometry>
        </mxCell>
        <mxCell id="Nr0Nqn4sbpoNYPIsYVH4-73" value="working on" style="text;html=1;resizable=0;autosize=1;align=center;verticalAlign=middle;points=[];fillColor=none;strokeColor=none;rounded=0;fontColor=#000000;rotation=90;" parent="1" vertex="1">
          <mxGeometry x="730" y="470" width="80" height="30" as="geometry" />
        </mxCell>
        <mxCell id="Nr0Nqn4sbpoNYPIsYVH4-74" value="AI Reseachers" style="text;html=1;resizable=0;autosize=1;align=center;verticalAlign=middle;points=[];fillColor=#f5f5f5;strokeColor=#666666;rounded=0;fontColor=#333333;" parent="1" vertex="1">
          <mxGeometry x="790" y="110" width="100" height="30" as="geometry" />
        </mxCell>
        <mxCell id="Nr0Nqn4sbpoNYPIsYVH4-75" value="" style="endArrow=none;html=1;rounded=0;fontColor=#000000;" parent="1" source="Nr0Nqn4sbpoNYPIsYVH4-5" target="Nr0Nqn4sbpoNYPIsYVH4-74" edge="1">
          <mxGeometry width="50" height="50" relative="1" as="geometry">
            <mxPoint x="490" y="400" as="sourcePoint" />
            <mxPoint x="540" y="350" as="targetPoint" />
          </mxGeometry>
        </mxCell>
        <mxCell id="Nr0Nqn4sbpoNYPIsYVH4-76" value="" style="endArrow=none;html=1;rounded=0;fontColor=#000000;" parent="1" source="Nr0Nqn4sbpoNYPIsYVH4-4" target="Nr0Nqn4sbpoNYPIsYVH4-74" edge="1">
          <mxGeometry width="50" height="50" relative="1" as="geometry">
            <mxPoint x="300" y="319.94382022471905" as="sourcePoint" />
            <mxPoint x="669.9999999999995" y="245.1123595505618" as="targetPoint" />
          </mxGeometry>
        </mxCell>
        <mxCell id="Nr0Nqn4sbpoNYPIsYVH4-77" value="" style="endArrow=none;html=1;rounded=0;fontColor=#000000;" parent="1" source="Nr0Nqn4sbpoNYPIsYVH4-11" target="Nr0Nqn4sbpoNYPIsYVH4-74" edge="1">
          <mxGeometry width="50" height="50" relative="1" as="geometry">
            <mxPoint x="310" y="329.94382022471905" as="sourcePoint" />
            <mxPoint x="679.9999999999995" y="255.1123595505618" as="targetPoint" />
          </mxGeometry>
        </mxCell>
        <mxCell id="Nr0Nqn4sbpoNYPIsYVH4-78" value="" style="endArrow=none;html=1;rounded=0;fontColor=#000000;" parent="1" source="Nr0Nqn4sbpoNYPIsYVH4-13" target="Nr0Nqn4sbpoNYPIsYVH4-74" edge="1">
          <mxGeometry width="50" height="50" relative="1" as="geometry">
            <mxPoint x="320" y="339.94382022471905" as="sourcePoint" />
            <mxPoint x="689.9999999999995" y="265.1123595505618" as="targetPoint" />
          </mxGeometry>
        </mxCell>
        <mxCell id="Nr0Nqn4sbpoNYPIsYVH4-79" value="is a" style="text;html=1;resizable=0;autosize=1;align=center;verticalAlign=middle;points=[];fillColor=none;strokeColor=none;rounded=0;fontColor=#000000;rotation=-15;" parent="1" vertex="1">
          <mxGeometry x="670" y="150" width="40" height="30" as="geometry" />
        </mxCell>
        <mxCell id="Nr0Nqn4sbpoNYPIsYVH4-80" value="is a" style="text;html=1;resizable=0;autosize=1;align=center;verticalAlign=middle;points=[];fillColor=none;strokeColor=none;rounded=0;fontColor=#000000;rotation=-30;" parent="1" vertex="1">
          <mxGeometry x="660" y="180" width="40" height="30" as="geometry" />
        </mxCell>
        <mxCell id="Nr0Nqn4sbpoNYPIsYVH4-81" value="is a" style="text;html=1;resizable=0;autosize=1;align=center;verticalAlign=middle;points=[];fillColor=none;strokeColor=none;rounded=0;fontColor=#000000;rotation=-30;" parent="1" vertex="1">
          <mxGeometry x="685" y="190" width="40" height="30" as="geometry" />
        </mxCell>
        <mxCell id="Nr0Nqn4sbpoNYPIsYVH4-82" value="is a" style="text;html=1;resizable=0;autosize=1;align=center;verticalAlign=middle;points=[];fillColor=none;strokeColor=none;rounded=0;fontColor=#000000;rotation=-30;" parent="1" vertex="1">
          <mxGeometry x="710" y="195" width="40" height="30" as="geometry" />
        </mxCell>
        <mxCell id="Nr0Nqn4sbpoNYPIsYVH4-84" value="6 hours" style="text;html=1;resizable=0;autosize=1;align=center;verticalAlign=middle;points=[];fillColor=#f5f5f5;strokeColor=#666666;rounded=0;fontColor=#333333;" parent="1" vertex="1">
          <mxGeometry x="870" y="260" width="60" height="30" as="geometry" />
        </mxCell>
        <mxCell id="Nr0Nqn4sbpoNYPIsYVH4-85" value="The agent" style="text;html=1;resizable=0;autosize=1;align=center;verticalAlign=middle;points=[];fillColor=#f5f5f5;strokeColor=#666666;rounded=0;fontColor=#333333;" parent="1" vertex="1">
          <mxGeometry x="930" y="510" width="80" height="30" as="geometry" />
        </mxCell>
        <mxCell id="Nr0Nqn4sbpoNYPIsYVH4-86" value="" style="endArrow=none;html=1;rounded=0;fontColor=#000000;" parent="1" source="Nr0Nqn4sbpoNYPIsYVH4-74" target="Nr0Nqn4sbpoNYPIsYVH4-84" edge="1">
          <mxGeometry width="50" height="50" relative="1" as="geometry">
            <mxPoint x="490" y="400" as="sourcePoint" />
            <mxPoint x="540" y="350" as="targetPoint" />
          </mxGeometry>
        </mxCell>
        <mxCell id="Nr0Nqn4sbpoNYPIsYVH4-87" value="" style="endArrow=none;html=1;rounded=0;fontColor=#000000;" parent="1" source="Nr0Nqn4sbpoNYPIsYVH4-85" target="Nr0Nqn4sbpoNYPIsYVH4-84" edge="1">
          <mxGeometry width="50" height="50" relative="1" as="geometry">
            <mxPoint x="490" y="400" as="sourcePoint" />
            <mxPoint x="540" y="350" as="targetPoint" />
          </mxGeometry>
        </mxCell>
        <mxCell id="Nr0Nqn4sbpoNYPIsYVH4-88" value="work" style="text;html=1;resizable=0;autosize=1;align=center;verticalAlign=middle;points=[];fillColor=none;strokeColor=none;rounded=0;fontColor=#000000;rotation=70;" parent="1" vertex="1">
          <mxGeometry x="870" y="195" width="50" height="30" as="geometry" />
        </mxCell>
        <mxCell id="Nr0Nqn4sbpoNYPIsYVH4-90" value="programming" style="text;html=1;resizable=0;autosize=1;align=center;verticalAlign=middle;points=[];fillColor=none;strokeColor=none;rounded=0;fontColor=#000000;rotation=75;" parent="1" vertex="1">
          <mxGeometry x="900" y="385" width="90" height="30" as="geometry" />
        </mxCell>
        <mxCell id="Nr0Nqn4sbpoNYPIsYVH4-91" value="for" style="text;html=1;resizable=0;autosize=1;align=center;verticalAlign=middle;points=[];fillColor=none;strokeColor=none;rounded=0;fontColor=#000000;rotation=-25;" parent="1" vertex="1">
          <mxGeometry x="850" y="550" width="40" height="30" as="geometry" />
        </mxCell>
        <mxCell id="Nr0Nqn4sbpoNYPIsYVH4-92" value="for" style="text;html=1;resizable=0;autosize=1;align=center;verticalAlign=middle;points=[];fillColor=none;strokeColor=none;rounded=0;fontColor=#000000;" parent="1" vertex="1">
          <mxGeometry x="150" y="500" width="40" height="30" as="geometry" />
        </mxCell>
        <mxCell id="Nr0Nqn4sbpoNYPIsYVH4-93" value="" style="endArrow=none;html=1;rounded=0;fontColor=#000000;" parent="1" source="Nr0Nqn4sbpoNYPIsYVH4-68" target="Nr0Nqn4sbpoNYPIsYVH4-85" edge="1">
          <mxGeometry width="50" height="50" relative="1" as="geometry">
            <mxPoint x="490" y="400" as="sourcePoint" />
            <mxPoint x="540" y="350" as="targetPoint" />
          </mxGeometry>
        </mxCell>
        <mxCell id="Nr0Nqn4sbpoNYPIsYVH4-94" value="" style="endArrow=none;html=1;rounded=0;fontColor=#000000;" parent="1" source="Nr0Nqn4sbpoNYPIsYVH4-71" edge="1">
          <mxGeometry width="50" height="50" relative="1" as="geometry">
            <mxPoint x="164" y="562.7866061293983" as="sourcePoint" />
            <mxPoint x="940" y="536.3620885357548" as="targetPoint" />
          </mxGeometry>
        </mxCell>
        <mxCell id="Nr0Nqn4sbpoNYPIsYVH4-98" value="A meeting" style="text;html=1;resizable=0;autosize=1;align=center;verticalAlign=middle;points=[];fillColor=#f5f5f5;strokeColor=#666666;rounded=0;fontColor=#333333;" parent="1" vertex="1">
          <mxGeometry x="420" y="-10" width="80" height="30" as="geometry" />
        </mxCell>
        <mxCell id="Nr0Nqn4sbpoNYPIsYVH4-99" value="" style="endArrow=none;html=1;rounded=0;fontColor=#000000;" parent="1" source="Nr0Nqn4sbpoNYPIsYVH4-98" target="Nr0Nqn4sbpoNYPIsYVH4-74" edge="1">
          <mxGeometry width="50" height="50" relative="1" as="geometry">
            <mxPoint x="490" y="190" as="sourcePoint" />
            <mxPoint x="540" y="140" as="targetPoint" />
          </mxGeometry>
        </mxCell>
        <mxCell id="Nr0Nqn4sbpoNYPIsYVH4-100" value="having_a" style="text;html=1;resizable=0;autosize=1;align=center;verticalAlign=middle;points=[];fillColor=none;strokeColor=none;rounded=0;fontColor=#000000;rotation=15;" parent="1" vertex="1">
          <mxGeometry x="655" y="40" width="70" height="30" as="geometry" />
        </mxCell>
        <mxCell id="Nr0Nqn4sbpoNYPIsYVH4-101" value="&lt;span style=&quot;color: rgba(0, 0, 0, 0.87); font-family: &amp;quot;Work Sans&amp;quot;, sans-serif; font-size: 14px; text-align: start; background-color: rgb(250, 250, 250);&quot;&gt;a retreat near Stockholm&lt;/span&gt;" style="text;html=1;resizable=0;autosize=1;align=center;verticalAlign=middle;points=[];fillColor=#f5f5f5;strokeColor=#666666;rounded=0;fontColor=#333333;" parent="1" vertex="1">
          <mxGeometry x="130" y="20" width="180" height="30" as="geometry" />
        </mxCell>
        <mxCell id="Nr0Nqn4sbpoNYPIsYVH4-102" value="" style="endArrow=none;html=1;rounded=0;fontColor=#000000;entryX=0.546;entryY=0.986;entryDx=0;entryDy=0;entryPerimeter=0;" parent="1" source="Nr0Nqn4sbpoNYPIsYVH4-101" target="Nr0Nqn4sbpoNYPIsYVH4-98" edge="1">
          <mxGeometry width="50" height="50" relative="1" as="geometry">
            <mxPoint x="500" y="200" as="sourcePoint" />
            <mxPoint x="540" y="140" as="targetPoint" />
          </mxGeometry>
        </mxCell>
        <mxCell id="Nr0Nqn4sbpoNYPIsYVH4-104" value="where" style="text;html=1;resizable=0;autosize=1;align=center;verticalAlign=middle;points=[];fillColor=none;strokeColor=none;rounded=0;fontColor=#000000;rotation=-5;" parent="1" vertex="1">
          <mxGeometry x="330" width="60" height="30" as="geometry" />
        </mxCell>
        <mxCell id="Nr0Nqn4sbpoNYPIsYVH4-105" value="Improve relationships between the researchers" style="text;html=1;resizable=0;autosize=1;align=center;verticalAlign=middle;points=[];fillColor=#f5f5f5;strokeColor=#666666;rounded=0;fontColor=#333333;" parent="1" vertex="1">
          <mxGeometry x="460" y="-160" width="270" height="30" as="geometry" />
        </mxCell>
        <mxCell id="Nr0Nqn4sbpoNYPIsYVH4-106" value="" style="endArrow=none;html=1;rounded=0;fontColor=#000000;" parent="1" source="Nr0Nqn4sbpoNYPIsYVH4-98" target="Nr0Nqn4sbpoNYPIsYVH4-105" edge="1">
          <mxGeometry width="50" height="50" relative="1" as="geometry">
            <mxPoint x="490" y="-30" as="sourcePoint" />
            <mxPoint x="540" y="-80" as="targetPoint" />
          </mxGeometry>
        </mxCell>
        <mxCell id="Nr0Nqn4sbpoNYPIsYVH4-107" value="reason" style="text;html=1;resizable=0;autosize=1;align=center;verticalAlign=middle;points=[];fillColor=none;strokeColor=none;rounded=0;fontColor=#000000;rotation=-45;" parent="1" vertex="1">
          <mxGeometry x="485" y="-80" width="60" height="30" as="geometry" />
        </mxCell>
        <mxCell id="Nr0Nqn4sbpoNYPIsYVH4-108" value="&lt;span style=&quot;color: rgba(0, 0, 0, 0.87); font-family: &amp;quot;Work Sans&amp;quot;, sans-serif; font-size: 14px; text-align: start; background-color: rgb(250, 250, 250);&quot;&gt;Researchers from a different country&lt;/span&gt;" style="text;html=1;resizable=0;autosize=1;align=center;verticalAlign=middle;points=[];fillColor=#f5f5f5;strokeColor=#666666;rounded=0;fontColor=#333333;" parent="1" vertex="1">
          <mxGeometry x="35" y="-110" width="250" height="30" as="geometry" />
        </mxCell>
        <mxCell id="Nr0Nqn4sbpoNYPIsYVH4-109" value="" style="endArrow=none;html=1;rounded=0;fontColor=#000000;" parent="1" source="Nr0Nqn4sbpoNYPIsYVH4-98" target="Nr0Nqn4sbpoNYPIsYVH4-108" edge="1">
          <mxGeometry width="50" height="50" relative="1" as="geometry">
            <mxPoint x="490" y="-30" as="sourcePoint" />
            <mxPoint x="540" y="-80" as="targetPoint" />
          </mxGeometry>
        </mxCell>
        <mxCell id="Nr0Nqn4sbpoNYPIsYVH4-110" value="share_room" style="text;html=1;resizable=0;autosize=1;align=center;verticalAlign=middle;points=[];fillColor=none;strokeColor=none;rounded=0;fontColor=#000000;rotation=15;" parent="1" vertex="1">
          <mxGeometry x="290" y="-60" width="90" height="30" as="geometry" />
        </mxCell>
        <mxCell id="Nr0Nqn4sbpoNYPIsYVH4-111" value="Shila" style="text;html=1;resizable=0;autosize=1;align=center;verticalAlign=middle;points=[];fillColor=#f5f5f5;strokeColor=#666666;rounded=0;fontColor=#333333;" parent="1" vertex="1">
          <mxGeometry x="5" y="-370" width="50" height="30" as="geometry" />
        </mxCell>
        <mxCell id="Nr0Nqn4sbpoNYPIsYVH4-112" value="Mark" style="text;html=1;resizable=0;autosize=1;align=center;verticalAlign=middle;points=[];fillColor=#f5f5f5;strokeColor=#666666;rounded=0;fontColor=#333333;" parent="1" vertex="1">
          <mxGeometry x="119" y="-380" width="50" height="30" as="geometry" />
        </mxCell>
        <mxCell id="Nr0Nqn4sbpoNYPIsYVH4-113" value="Cornelius" style="text;html=1;resizable=0;autosize=1;align=center;verticalAlign=middle;points=[];fillColor=#f5f5f5;strokeColor=#666666;rounded=0;fontColor=#333333;" parent="1" vertex="1">
          <mxGeometry x="230" y="-380" width="70" height="30" as="geometry" />
        </mxCell>
        <mxCell id="Nr0Nqn4sbpoNYPIsYVH4-114" value="Ethel" style="text;html=1;resizable=0;autosize=1;align=center;verticalAlign=middle;points=[];fillColor=#f5f5f5;strokeColor=#666666;rounded=0;fontColor=#333333;" parent="1" vertex="1">
          <mxGeometry x="355" y="-360" width="50" height="30" as="geometry" />
        </mxCell>
        <mxCell id="Nr0Nqn4sbpoNYPIsYVH4-115" value="" style="endArrow=none;html=1;rounded=0;fontColor=#000000;" parent="1" source="Nr0Nqn4sbpoNYPIsYVH4-108" target="Nr0Nqn4sbpoNYPIsYVH4-111" edge="1">
          <mxGeometry width="50" height="50" relative="1" as="geometry">
            <mxPoint x="490" y="-180" as="sourcePoint" />
            <mxPoint x="540" y="-230" as="targetPoint" />
          </mxGeometry>
        </mxCell>
        <mxCell id="Nr0Nqn4sbpoNYPIsYVH4-116" value="" style="endArrow=none;html=1;rounded=0;fontColor=#000000;" parent="1" source="Nr0Nqn4sbpoNYPIsYVH4-108" target="Nr0Nqn4sbpoNYPIsYVH4-112" edge="1">
          <mxGeometry width="50" height="50" relative="1" as="geometry">
            <mxPoint x="160" y="-50" as="sourcePoint" />
            <mxPoint x="210" y="-100" as="targetPoint" />
          </mxGeometry>
        </mxCell>
        <mxCell id="Nr0Nqn4sbpoNYPIsYVH4-117" value="" style="endArrow=none;html=1;rounded=0;fontColor=#000000;" parent="1" source="Nr0Nqn4sbpoNYPIsYVH4-108" target="Nr0Nqn4sbpoNYPIsYVH4-113" edge="1">
          <mxGeometry width="50" height="50" relative="1" as="geometry">
            <mxPoint x="490" y="-180" as="sourcePoint" />
            <mxPoint x="540" y="-230" as="targetPoint" />
          </mxGeometry>
        </mxCell>
        <mxCell id="Nr0Nqn4sbpoNYPIsYVH4-118" value="" style="endArrow=none;html=1;rounded=0;fontColor=#000000;exitX=0.815;exitY=0.053;exitDx=0;exitDy=0;exitPerimeter=0;" parent="1" source="Nr0Nqn4sbpoNYPIsYVH4-108" target="Nr0Nqn4sbpoNYPIsYVH4-114" edge="1">
          <mxGeometry width="50" height="50" relative="1" as="geometry">
            <mxPoint x="390" y="-110" as="sourcePoint" />
            <mxPoint x="440" y="-160" as="targetPoint" />
          </mxGeometry>
        </mxCell>
        <mxCell id="Nr0Nqn4sbpoNYPIsYVH4-120" value="" style="curved=1;endArrow=classic;html=1;rounded=0;fontColor=#000000;" parent="1" source="Nr0Nqn4sbpoNYPIsYVH4-112" target="Nr0Nqn4sbpoNYPIsYVH4-113" edge="1">
          <mxGeometry width="50" height="50" relative="1" as="geometry">
            <mxPoint x="455" y="-280" as="sourcePoint" />
            <mxPoint x="505" y="-330" as="targetPoint" />
            <Array as="points">
              <mxPoint x="165" y="-420" />
              <mxPoint x="225" y="-420" />
            </Array>
          </mxGeometry>
        </mxCell>
        <mxCell id="Nr0Nqn4sbpoNYPIsYVH4-121" value="true" style="text;html=1;resizable=0;autosize=1;align=center;verticalAlign=middle;points=[];fillColor=none;strokeColor=none;rounded=0;fontColor=#000000;" parent="1" vertex="1">
          <mxGeometry x="175" y="-440" width="40" height="30" as="geometry" />
        </mxCell>
        <mxCell id="Nr0Nqn4sbpoNYPIsYVH4-122" value="" style="curved=1;endArrow=classic;html=1;rounded=0;fontColor=#000000;" parent="1" source="Nr0Nqn4sbpoNYPIsYVH4-113" target="Nr0Nqn4sbpoNYPIsYVH4-112" edge="1">
          <mxGeometry width="50" height="50" relative="1" as="geometry">
            <mxPoint x="490" y="-180" as="sourcePoint" />
            <mxPoint x="540" y="-230" as="targetPoint" />
            <Array as="points">
              <mxPoint x="300" y="-250" />
              <mxPoint x="200" y="-180" />
            </Array>
          </mxGeometry>
        </mxCell>
        <mxCell id="Nr0Nqn4sbpoNYPIsYVH4-123" value="true" style="text;html=1;resizable=0;autosize=1;align=center;verticalAlign=middle;points=[];fillColor=none;strokeColor=none;rounded=0;fontColor=#000000;" parent="1" vertex="1">
          <mxGeometry x="230" y="-220" width="40" height="30" as="geometry" />
        </mxCell>
        <mxCell id="Nr0Nqn4sbpoNYPIsYVH4-124" value="" style="curved=1;endArrow=classic;html=1;rounded=0;fontColor=#000000;" parent="1" source="Nr0Nqn4sbpoNYPIsYVH4-111" target="Nr0Nqn4sbpoNYPIsYVH4-114" edge="1">
          <mxGeometry width="50" height="50" relative="1" as="geometry">
            <mxPoint x="490" y="-180" as="sourcePoint" />
            <mxPoint x="540" y="-230" as="targetPoint" />
            <Array as="points">
              <mxPoint x="200" y="-430" />
              <mxPoint x="370" y="-290" />
            </Array>
          </mxGeometry>
        </mxCell>
        <mxCell id="Nr0Nqn4sbpoNYPIsYVH4-125" value="true" style="text;html=1;resizable=0;autosize=1;align=center;verticalAlign=middle;points=[];fillColor=none;strokeColor=none;rounded=0;fontColor=#000000;" parent="1" vertex="1">
          <mxGeometry x="79" y="-410" width="40" height="30" as="geometry" />
        </mxCell>
        <mxCell id="Nr0Nqn4sbpoNYPIsYVH4-128" value="" style="curved=1;endArrow=classic;html=1;rounded=0;fontColor=#000000;" parent="1" source="Nr0Nqn4sbpoNYPIsYVH4-114" target="Nr0Nqn4sbpoNYPIsYVH4-111" edge="1">
          <mxGeometry width="50" height="50" relative="1" as="geometry">
            <mxPoint x="490" y="-180" as="sourcePoint" />
            <mxPoint x="540" y="-230" as="targetPoint" />
            <Array as="points">
              <mxPoint x="450" y="-160" />
              <mxPoint x="200" y="-140" />
            </Array>
          </mxGeometry>
        </mxCell>
        <mxCell id="Nr0Nqn4sbpoNYPIsYVH4-129" value="false" style="text;html=1;resizable=0;autosize=1;align=center;verticalAlign=middle;points=[];fillColor=none;strokeColor=none;rounded=0;fontColor=#000000;" parent="1" vertex="1">
          <mxGeometry x="355" y="-160" width="50" height="30" as="geometry" />
        </mxCell>
        <mxCell id="Nr0Nqn4sbpoNYPIsYVH4-130" value="like_share" style="text;html=1;resizable=0;autosize=1;align=center;verticalAlign=middle;points=[];fillColor=none;strokeColor=none;rounded=0;fontColor=#000000;rotation=-65;" parent="1" vertex="1">
          <mxGeometry x="180" y="-300" width="80" height="30" as="geometry" />
        </mxCell>
        <mxCell id="Nr0Nqn4sbpoNYPIsYVH4-131" value="like_share" style="text;html=1;resizable=0;autosize=1;align=center;verticalAlign=middle;points=[];fillColor=none;strokeColor=none;rounded=0;fontColor=#000000;rotation=-60;" parent="1" vertex="1">
          <mxGeometry x="275" y="-230" width="80" height="30" as="geometry" />
        </mxCell>
        <mxCell id="Nr0Nqn4sbpoNYPIsYVH4-132" value="like_share" style="text;html=1;resizable=0;autosize=1;align=center;verticalAlign=middle;points=[];fillColor=none;strokeColor=none;rounded=0;fontColor=#000000;rotation=60;" parent="1" vertex="1">
          <mxGeometry x="55" y="-220" width="80" height="30" as="geometry" />
        </mxCell>
        <mxCell id="Nr0Nqn4sbpoNYPIsYVH4-133" value="like_share" style="text;html=1;resizable=0;autosize=1;align=center;verticalAlign=middle;points=[];fillColor=none;strokeColor=none;rounded=0;fontColor=#000000;rotation=-92;" parent="1" vertex="1">
          <mxGeometry x="105" y="-190" width="80" height="30" as="geometry" />
        </mxCell>
        <mxCell id="Nr0Nqn4sbpoNYPIsYVH4-137" value="Final version" style="text;html=1;resizable=0;autosize=1;align=center;verticalAlign=middle;points=[];fillColor=#f5f5f5;strokeColor=#666666;rounded=0;fontColor=#333333;" parent="1" vertex="1">
          <mxGeometry x="890" y="-40" width="90" height="30" as="geometry" />
        </mxCell>
        <mxCell id="Nr0Nqn4sbpoNYPIsYVH4-138" value="" style="endArrow=none;html=1;rounded=0;fontColor=#000000;" parent="1" source="Nr0Nqn4sbpoNYPIsYVH4-74" target="Nr0Nqn4sbpoNYPIsYVH4-137" edge="1">
          <mxGeometry width="50" height="50" relative="1" as="geometry">
            <mxPoint x="490" y="110" as="sourcePoint" />
            <mxPoint x="540" y="60" as="targetPoint" />
          </mxGeometry>
        </mxCell>
        <mxCell id="Nr0Nqn4sbpoNYPIsYVH4-139" value="makes" style="text;html=1;resizable=0;autosize=1;align=center;verticalAlign=middle;points=[];fillColor=none;strokeColor=none;rounded=0;fontColor=#000000;rotation=-60;" parent="1" vertex="1">
          <mxGeometry x="865" y="40" width="60" height="30" as="geometry" />
        </mxCell>
        <mxCell id="Nr0Nqn4sbpoNYPIsYVH4-141" value="of" style="text;html=1;resizable=0;autosize=1;align=center;verticalAlign=middle;points=[];fillColor=none;strokeColor=none;rounded=0;fontColor=#000000;rotation=90;" parent="1" vertex="1">
          <mxGeometry x="950" y="210" width="30" height="30" as="geometry" />
        </mxCell>
        <mxCell id="Nr0Nqn4sbpoNYPIsYVH4-142" value="" style="endArrow=none;html=1;rounded=0;fontColor=#000000;" parent="1" source="Nr0Nqn4sbpoNYPIsYVH4-85" target="Nr0Nqn4sbpoNYPIsYVH4-137" edge="1">
          <mxGeometry width="50" height="50" relative="1" as="geometry">
            <mxPoint x="490" y="320" as="sourcePoint" />
            <mxPoint x="540" y="270" as="targetPoint" />
          </mxGeometry>
        </mxCell>
        <mxCell id="Nr0Nqn4sbpoNYPIsYVH4-143" value="&lt;span style=&quot;color: rgba(0, 0, 0, 0.87); font-family: &amp;quot;Work Sans&amp;quot;, sans-serif; font-size: 14px; text-align: start; background-color: rgb(250, 250, 250);&quot;&gt;Â£20,000&lt;/span&gt;" style="text;html=1;resizable=0;autosize=1;align=center;verticalAlign=middle;points=[];fillColor=#f5f5f5;strokeColor=#666666;rounded=0;fontColor=#333333;" parent="1" vertex="1">
          <mxGeometry x="900" y="-190" width="70" height="30" as="geometry" />
        </mxCell>
        <mxCell id="Nr0Nqn4sbpoNYPIsYVH4-144" value="" style="endArrow=none;html=1;rounded=0;fontColor=#000000;" parent="1" source="Nr0Nqn4sbpoNYPIsYVH4-137" target="Nr0Nqn4sbpoNYPIsYVH4-143" edge="1">
          <mxGeometry width="50" height="50" relative="1" as="geometry">
            <mxPoint x="490" y="-70" as="sourcePoint" />
            <mxPoint x="540" y="-120" as="targetPoint" />
          </mxGeometry>
        </mxCell>
        <mxCell id="Nr0Nqn4sbpoNYPIsYVH4-145" value="bonus" style="text;html=1;resizable=0;autosize=1;align=center;verticalAlign=middle;points=[];fillColor=none;strokeColor=none;rounded=0;fontColor=#000000;rotation=-91;" parent="1" vertex="1">
          <mxGeometry x="900" y="-110" width="60" height="30" as="geometry" />
        </mxCell>
        <mxCell id="Nr0Nqn4sbpoNYPIsYVH4-146" value="has worked" style="text;html=1;resizable=0;autosize=1;align=center;verticalAlign=middle;points=[];fillColor=none;strokeColor=none;rounded=0;fontColor=#000000;rotation=90;" parent="1" vertex="1">
          <mxGeometry x="235" y="465" width="80" height="30" as="geometry" />
        </mxCell>
        <mxCell id="Nr0Nqn4sbpoNYPIsYVH4-147" value="has worked" style="text;html=1;resizable=0;autosize=1;align=center;verticalAlign=middle;points=[];fillColor=none;strokeColor=none;rounded=0;fontColor=#000000;rotation=90;" parent="1" vertex="1">
          <mxGeometry x="330" y="585" width="80" height="30" as="geometry" />
        </mxCell>
        <mxCell id="Nr0Nqn4sbpoNYPIsYVH4-148" value="has worked" style="text;html=1;resizable=0;autosize=1;align=center;verticalAlign=middle;points=[];fillColor=none;strokeColor=none;rounded=0;fontColor=#000000;rotation=90;" parent="1" vertex="1">
          <mxGeometry x="440" y="450" width="80" height="30" as="geometry" />
        </mxCell>
        <mxCell id="Nr0Nqn4sbpoNYPIsYVH4-149" value="has worked" style="text;html=1;resizable=0;autosize=1;align=center;verticalAlign=middle;points=[];fillColor=none;strokeColor=none;rounded=0;fontColor=#000000;rotation=90;" parent="1" vertex="1">
          <mxGeometry x="535" y="420" width="80" height="30" as="geometry" />
        </mxCell>
        <mxCell id="Nr0Nqn4sbpoNYPIsYVH4-150" value="4 projects" style="text;html=1;resizable=0;autosize=1;align=center;verticalAlign=middle;points=[];fillColor=#f5f5f5;strokeColor=#666666;rounded=0;fontColor=#333333;" parent="1" vertex="1">
          <mxGeometry x="525" y="730" width="80" height="30" as="geometry" />
        </mxCell>
        <mxCell id="Nr0Nqn4sbpoNYPIsYVH4-151" value="2 projects" style="text;html=1;resizable=0;autosize=1;align=center;verticalAlign=middle;points=[];fillColor=#f5f5f5;strokeColor=#666666;rounded=0;fontColor=#333333;" parent="1" vertex="1">
          <mxGeometry x="425" y="730" width="80" height="30" as="geometry" />
        </mxCell>
        <mxCell id="Nr0Nqn4sbpoNYPIsYVH4-152" value="1 project" style="text;html=1;resizable=0;autosize=1;align=center;verticalAlign=middle;points=[];fillColor=#f5f5f5;strokeColor=#666666;rounded=0;fontColor=#333333;" parent="1" vertex="1">
          <mxGeometry x="230" y="730" width="70" height="30" as="geometry" />
        </mxCell>
        <mxCell id="Nr0Nqn4sbpoNYPIsYVH4-153" value="3 projects" style="text;html=1;resizable=0;autosize=1;align=center;verticalAlign=middle;points=[];fillColor=#f5f5f5;strokeColor=#666666;rounded=0;fontColor=#333333;" parent="1" vertex="1">
          <mxGeometry x="320" y="730" width="80" height="30" as="geometry" />
        </mxCell>
        <mxCell id="Nr0Nqn4sbpoNYPIsYVH4-157" value="" style="endArrow=none;html=1;rounded=0;fontColor=#000000;" parent="1" source="Nr0Nqn4sbpoNYPIsYVH4-150" target="Nr0Nqn4sbpoNYPIsYVH4-13" edge="1">
          <mxGeometry width="50" height="50" relative="1" as="geometry">
            <mxPoint x="490" y="470" as="sourcePoint" />
            <mxPoint x="540" y="420" as="targetPoint" />
          </mxGeometry>
        </mxCell>
        <mxCell id="Nr0Nqn4sbpoNYPIsYVH4-158" value="" style="endArrow=none;html=1;rounded=0;fontColor=#000000;" parent="1" source="Nr0Nqn4sbpoNYPIsYVH4-151" target="Nr0Nqn4sbpoNYPIsYVH4-11" edge="1">
          <mxGeometry width="50" height="50" relative="1" as="geometry">
            <mxPoint x="575" y="739.9999999999995" as="sourcePoint" />
            <mxPoint x="575" y="340" as="targetPoint" />
          </mxGeometry>
        </mxCell>
        <mxCell id="Nr0Nqn4sbpoNYPIsYVH4-159" value="" style="endArrow=none;html=1;rounded=0;fontColor=#000000;" parent="1" source="Nr0Nqn4sbpoNYPIsYVH4-153" target="Nr0Nqn4sbpoNYPIsYVH4-4" edge="1">
          <mxGeometry width="50" height="50" relative="1" as="geometry">
            <mxPoint x="585" y="749.9999999999995" as="sourcePoint" />
            <mxPoint x="585" y="350" as="targetPoint" />
          </mxGeometry>
        </mxCell>
        <mxCell id="Nr0Nqn4sbpoNYPIsYVH4-160" value="" style="endArrow=none;html=1;rounded=0;fontColor=#000000;entryX=0.484;entryY=1.006;entryDx=0;entryDy=0;entryPerimeter=0;" parent="1" source="Nr0Nqn4sbpoNYPIsYVH4-152" target="Nr0Nqn4sbpoNYPIsYVH4-5" edge="1">
          <mxGeometry width="50" height="50" relative="1" as="geometry">
            <mxPoint x="595" y="759.9999999999995" as="sourcePoint" />
            <mxPoint x="595" y="360" as="targetPoint" />
          </mxGeometry>
        </mxCell>
        <mxCell id="Nr0Nqn4sbpoNYPIsYVH4-162" value="Leader" style="text;html=1;resizable=0;autosize=1;align=center;verticalAlign=middle;points=[];fillColor=#f5f5f5;strokeColor=#666666;rounded=0;fontColor=#333333;" parent="1" vertex="1">
          <mxGeometry x="1110" y="450" width="60" height="30" as="geometry" />
        </mxCell>
        <mxCell id="Nr0Nqn4sbpoNYPIsYVH4-163" value="Leader" style="text;html=1;resizable=0;autosize=1;align=center;verticalAlign=middle;points=[];fillColor=#f5f5f5;strokeColor=#666666;rounded=0;fontColor=#333333;" parent="1" vertex="1">
          <mxGeometry x="1241" y="300" width="60" height="30" as="geometry" />
        </mxCell>
        <mxCell id="Nr0Nqn4sbpoNYPIsYVH4-164" value="" style="curved=1;endArrow=classic;html=1;rounded=0;fontColor=#000000;" parent="1" source="Nr0Nqn4sbpoNYPIsYVH4-5" target="Nr0Nqn4sbpoNYPIsYVH4-162" edge="1">
          <mxGeometry width="50" height="50" relative="1" as="geometry">
            <mxPoint x="490" y="340" as="sourcePoint" />
            <mxPoint x="540" y="290" as="targetPoint" />
            <Array as="points">
              <mxPoint x="730" y="370" />
              <mxPoint x="920" y="380" />
            </Array>
          </mxGeometry>
        </mxCell>
        <mxCell id="Nr0Nqn4sbpoNYPIsYVH4-165" value="" style="curved=1;endArrow=classic;html=1;rounded=0;fontColor=#000000;" parent="1" source="Nr0Nqn4sbpoNYPIsYVH4-4" target="Nr0Nqn4sbpoNYPIsYVH4-162" edge="1">
          <mxGeometry width="50" height="50" relative="1" as="geometry">
            <mxPoint x="300" y="327.95698924731187" as="sourcePoint" />
            <mxPoint x="1040" y="382.14285714285734" as="targetPoint" />
            <Array as="points">
              <mxPoint x="650" y="430" />
              <mxPoint x="770" y="460" />
            </Array>
          </mxGeometry>
        </mxCell>
        <mxCell id="Nr0Nqn4sbpoNYPIsYVH4-166" value="" style="curved=1;endArrow=classic;html=1;rounded=0;fontColor=#000000;" parent="1" source="Nr0Nqn4sbpoNYPIsYVH4-11" target="Nr0Nqn4sbpoNYPIsYVH4-163" edge="1">
          <mxGeometry width="50" height="50" relative="1" as="geometry">
            <mxPoint x="395" y="329.27631578947376" as="sourcePoint" />
            <mxPoint x="1040" y="384.61538461538476" as="targetPoint" />
            <Array as="points">
              <mxPoint x="740" y="230" />
              <mxPoint x="930" y="330" />
            </Array>
          </mxGeometry>
        </mxCell>
        <mxCell id="Nr0Nqn4sbpoNYPIsYVH4-167" value="" style="curved=1;endArrow=classic;html=1;rounded=0;fontColor=#000000;" parent="1" source="Nr0Nqn4sbpoNYPIsYVH4-13" target="Nr0Nqn4sbpoNYPIsYVH4-163" edge="1">
          <mxGeometry width="50" height="50" relative="1" as="geometry">
            <mxPoint x="510" y="314.181818181818" as="sourcePoint" />
            <mxPoint x="1040" y="328.46153846153857" as="targetPoint" />
            <Array as="points">
              <mxPoint x="770" y="315" />
              <mxPoint x="940" y="340" />
            </Array>
          </mxGeometry>
        </mxCell>
        <mxCell id="Nr0Nqn4sbpoNYPIsYVH4-168" value="has a" style="text;html=1;resizable=0;autosize=1;align=center;verticalAlign=middle;points=[];fillColor=none;strokeColor=none;rounded=0;fontColor=#000000;" parent="1" vertex="1">
          <mxGeometry x="1010" y="440" width="50" height="30" as="geometry" />
        </mxCell>
        <mxCell id="Nr0Nqn4sbpoNYPIsYVH4-169" value="has a" style="text;html=1;resizable=0;autosize=1;align=center;verticalAlign=middle;points=[];fillColor=none;strokeColor=none;rounded=0;fontColor=#000000;rotation=15;" parent="1" vertex="1">
          <mxGeometry x="1035" y="405" width="50" height="30" as="geometry" />
        </mxCell>
        <mxCell id="Nr0Nqn4sbpoNYPIsYVH4-170" value="has a" style="text;html=1;resizable=0;autosize=1;align=center;verticalAlign=middle;points=[];fillColor=none;strokeColor=none;rounded=0;fontColor=#000000;" parent="1" vertex="1">
          <mxGeometry x="1085" y="290" width="50" height="30" as="geometry" />
        </mxCell>
        <mxCell id="Nr0Nqn4sbpoNYPIsYVH4-171" value="has a" style="text;html=1;resizable=0;autosize=1;align=center;verticalAlign=middle;points=[];fillColor=none;strokeColor=none;rounded=0;fontColor=#000000;" parent="1" vertex="1">
          <mxGeometry x="1085" y="325" width="50" height="30" as="geometry" />
        </mxCell>
        <mxCell id="Nr0Nqn4sbpoNYPIsYVH4-172" value="Roger" style="text;html=1;resizable=0;autosize=1;align=center;verticalAlign=middle;points=[];fillColor=#f5f5f5;strokeColor=#666666;rounded=0;fontColor=#333333;" parent="1" vertex="1">
          <mxGeometry x="1110" y="550" width="60" height="30" as="geometry" />
        </mxCell>
        <mxCell id="Nr0Nqn4sbpoNYPIsYVH4-173" value="Stefan" style="text;html=1;resizable=0;autosize=1;align=center;verticalAlign=middle;points=[];fillColor=#f5f5f5;strokeColor=#666666;rounded=0;fontColor=#333333;" parent="1" vertex="1">
          <mxGeometry x="1241" y="415" width="60" height="30" as="geometry" />
        </mxCell>
        <mxCell id="Nr0Nqn4sbpoNYPIsYVH4-174" value="" style="endArrow=none;html=1;rounded=0;fontColor=#000000;" parent="1" source="Nr0Nqn4sbpoNYPIsYVH4-172" target="Nr0Nqn4sbpoNYPIsYVH4-162" edge="1">
          <mxGeometry width="50" height="50" relative="1" as="geometry">
            <mxPoint x="780" y="340" as="sourcePoint" />
            <mxPoint x="830" y="290" as="targetPoint" />
          </mxGeometry>
        </mxCell>
        <mxCell id="Nr0Nqn4sbpoNYPIsYVH4-175" value="who" style="text;html=1;resizable=0;autosize=1;align=center;verticalAlign=middle;points=[];fillColor=none;strokeColor=none;rounded=0;fontColor=#000000;rotation=90;" parent="1" vertex="1">
          <mxGeometry x="1130" y="500" width="50" height="30" as="geometry" />
        </mxCell>
        <mxCell id="Nr0Nqn4sbpoNYPIsYVH4-176" value="" style="endArrow=none;html=1;rounded=0;fontColor=#000000;" parent="1" source="Nr0Nqn4sbpoNYPIsYVH4-173" target="Nr0Nqn4sbpoNYPIsYVH4-163" edge="1">
          <mxGeometry width="50" height="50" relative="1" as="geometry">
            <mxPoint x="780" y="340" as="sourcePoint" />
            <mxPoint x="1280" y="330" as="targetPoint" />
          </mxGeometry>
        </mxCell>
        <mxCell id="Nr0Nqn4sbpoNYPIsYVH4-177" value="who" style="text;html=1;resizable=0;autosize=1;align=center;verticalAlign=middle;points=[];fillColor=none;strokeColor=none;rounded=0;fontColor=#000000;rotation=90;" parent="1" vertex="1">
          <mxGeometry x="1260" y="365" width="50" height="30" as="geometry" />
        </mxCell>
        <mxCell id="Nr0Nqn4sbpoNYPIsYVH4-178" value="Their work" style="text;html=1;resizable=0;autosize=1;align=center;verticalAlign=middle;points=[];fillColor=#f5f5f5;strokeColor=#666666;rounded=0;fontColor=#333333;" parent="1" vertex="1">
          <mxGeometry x="1060" y="110" width="80" height="30" as="geometry" />
        </mxCell>
        <mxCell id="Nr0Nqn4sbpoNYPIsYVH4-179" value="Project review" style="text;html=1;resizable=0;autosize=1;align=center;verticalAlign=middle;points=[];fillColor=#f5f5f5;strokeColor=#666666;rounded=0;fontColor=#333333;" parent="1" vertex="1">
          <mxGeometry x="1050" y="20" width="100" height="30" as="geometry" />
        </mxCell>
        <mxCell id="Nr0Nqn4sbpoNYPIsYVH4-180" value="Brussels" style="text;html=1;resizable=0;autosize=1;align=center;verticalAlign=middle;points=[];fillColor=#f5f5f5;strokeColor=#666666;rounded=0;fontColor=#333333;" parent="1" vertex="1">
          <mxGeometry x="1250" y="110" width="70" height="30" as="geometry" />
        </mxCell>
        <mxCell id="Nr0Nqn4sbpoNYPIsYVH4-181" value="2&amp;nbsp;&lt;span style=&quot;color: rgba(0, 0, 0, 0.87); font-family: &amp;quot;Work Sans&amp;quot;, sans-serif; font-size: 14px; text-align: start; background-color: rgb(250, 250, 250);&quot;&gt;reviewers&lt;/span&gt;" style="text;html=1;resizable=0;autosize=1;align=center;verticalAlign=middle;points=[];fillColor=#f5f5f5;strokeColor=#666666;rounded=0;fontColor=#333333;" parent="1" vertex="1">
          <mxGeometry x="1055" y="230" width="90" height="30" as="geometry" />
        </mxCell>
        <mxCell id="Nr0Nqn4sbpoNYPIsYVH4-182" value="" style="endArrow=none;html=1;rounded=0;fontColor=#000000;" parent="1" source="Nr0Nqn4sbpoNYPIsYVH4-178" target="Nr0Nqn4sbpoNYPIsYVH4-74" edge="1">
          <mxGeometry width="50" height="50" relative="1" as="geometry">
            <mxPoint x="780" y="160" as="sourcePoint" />
            <mxPoint x="830" y="110" as="targetPoint" />
          </mxGeometry>
        </mxCell>
        <mxCell id="Nr0Nqn4sbpoNYPIsYVH4-183" value="demonstrate" style="text;html=1;resizable=0;autosize=1;align=center;verticalAlign=middle;points=[];fillColor=none;strokeColor=none;rounded=0;fontColor=#000000;" parent="1" vertex="1">
          <mxGeometry x="945" y="100" width="90" height="30" as="geometry" />
        </mxCell>
        <mxCell id="Nr0Nqn4sbpoNYPIsYVH4-184" value="" style="endArrow=none;html=1;rounded=0;fontColor=#000000;" parent="1" source="Nr0Nqn4sbpoNYPIsYVH4-179" target="Nr0Nqn4sbpoNYPIsYVH4-178" edge="1">
          <mxGeometry width="50" height="50" relative="1" as="geometry">
            <mxPoint x="780" y="160" as="sourcePoint" />
            <mxPoint x="830" y="110" as="targetPoint" />
          </mxGeometry>
        </mxCell>
        <mxCell id="Nr0Nqn4sbpoNYPIsYVH4-185" value="" style="endArrow=none;html=1;rounded=0;fontColor=#000000;" parent="1" source="Nr0Nqn4sbpoNYPIsYVH4-180" target="Nr0Nqn4sbpoNYPIsYVH4-178" edge="1">
          <mxGeometry width="50" height="50" relative="1" as="geometry">
            <mxPoint x="1110" y="60" as="sourcePoint" />
            <mxPoint x="1110" y="120" as="targetPoint" />
          </mxGeometry>
        </mxCell>
        <mxCell id="Nr0Nqn4sbpoNYPIsYVH4-186" value="" style="endArrow=none;html=1;rounded=0;fontColor=#000000;" parent="1" source="Nr0Nqn4sbpoNYPIsYVH4-178" target="Nr0Nqn4sbpoNYPIsYVH4-181" edge="1">
          <mxGeometry width="50" height="50" relative="1" as="geometry">
            <mxPoint x="1120" y="70" as="sourcePoint" />
            <mxPoint x="1120" y="130" as="targetPoint" />
          </mxGeometry>
        </mxCell>
        <mxCell id="Nr0Nqn4sbpoNYPIsYVH4-187" value="at a" style="text;html=1;resizable=0;autosize=1;align=center;verticalAlign=middle;points=[];fillColor=none;strokeColor=none;rounded=0;fontColor=#000000;rotation=270;" parent="1" vertex="1">
          <mxGeometry x="1070" y="70" width="40" height="30" as="geometry" />
        </mxCell>
        <mxCell id="Nr0Nqn4sbpoNYPIsYVH4-189" value="in" style="text;html=1;resizable=0;autosize=1;align=center;verticalAlign=middle;points=[];fillColor=none;strokeColor=none;rounded=0;fontColor=#000000;" parent="1" vertex="1">
          <mxGeometry x="1180" y="100" width="30" height="30" as="geometry" />
        </mxCell>
        <mxCell id="Nr0Nqn4sbpoNYPIsYVH4-190" value="in front_of" style="text;html=1;resizable=0;autosize=1;align=center;verticalAlign=middle;points=[];fillColor=none;strokeColor=none;rounded=0;fontColor=#000000;rotation=270;" parent="1" vertex="1">
          <mxGeometry x="1050" y="170" width="80" height="30" as="geometry" />
        </mxCell>
      </root>
    </mxGraphModel>
  </diagram>
</mxfile>
